<svg xmlns="http://www.w3.org/2000/svg" width="81" height="85" viewBox="0 0 81 85" fill="none">
  <path d="M75.3898 65.5756C75.3898 63.4475 75.3022 60.9968 75.052 58.2876C75.3565 50.096 74.7254 37.6954 69.5641 23.8908C66.9813 16.9836 63.8412 11.265 60.8901 6.74313C59.4681 9.0256 58.0335 11.6445 56.7102 14.6066C54.8906 18.6795 53.6409 22.5939 52.7805 26.1733H52.6873C52.0632 23.9617 51.2417 21.5986 50.1588 19.1479C46.1832 10.1585 40.4242 3.93106 35.9468 0C33.7894 3.07479 31.0566 7.72034 29.2022 13.8491C27.7524 18.6392 27.2728 22.9094 27.1547 26.1733C26.2595 23.2861 24.9945 19.9903 23.1805 16.4985C19.975 10.3309 16.1843 5.72979 13.065 2.5285C9.11165 10.1807 4.79134 20.5672 2.22667 33.3584C1.06875 39.1313 0.444612 44.5136 0.155479 49.3718C0.0762454 50.4338 0.0248131 51.5153 0.00674227 52.6176C0.00674227 52.6204 0.00674227 52.6231 0.00674227 52.6259C-0.0127186 53.8825 0.00952239 55.1641 0.0790255 56.4694C0.338967 61.2734 1.20359 65.527 2.25725 69.1216C2.84525 70.9009 4.5731 75.3352 9.0769 78.9632C13.589 82.5982 18.3027 83.3377 20.1654 83.5323C26.9239 84.1008 34.2899 84.4275 42.1826 84.3524C48.399 84.294 54.2706 83.9938 59.7572 83.5323C60.6649 83.5101 67.8084 83.2112 72.3553 77.1311C76.0473 72.195 75.533 66.7836 75.3884 65.5756H75.3898Z" fill="#112F40"/>
  <path d="M30.6302 63.2692C30.8961 63.2448 31.1322 63.442 31.1576 63.7081C31.1825 63.9741 30.9875 64.2095 30.7218 64.2355C29.5196 64.35 28.2574 64.4438 26.9419 64.5039C22.9624 64.6855 19.3501 64.5343 16.2116 64.2355C15.9452 64.2101 15.7477 63.9745 15.7727 63.7081C15.7981 63.4415 16.0365 63.2438 16.3032 63.2692C19.4023 63.5643 22.9689 63.7137 26.8977 63.5345C28.1963 63.4751 29.4429 63.3823 30.6302 63.2692ZM19.4042 58.8419C23.4947 58.9975 26.9451 59.5818 29.5629 60.184C29.7961 60.2383 29.9571 60.4566 29.9386 60.6956C29.92 60.934 29.7286 61.1227 29.4902 61.1408C27.2299 61.3032 24.9675 61.4651 22.7072 61.6271C21.492 61.7142 20.2752 61.7989 19.06 61.8861L34.6848 61.1471C34.9517 61.1353 35.1805 61.3411 35.1932 61.6082C35.2058 61.8752 34.9959 62.1032 34.729 62.1166L12.3686 63.1776C12.1016 63.1898 11.8763 62.9836 11.8633 62.7166C11.8506 62.449 12.0568 62.2209 12.3243 62.2082L15.6622 62.0471C15.5229 61.9705 15.4187 61.8353 15.4064 61.665C15.3876 61.3984 15.5883 61.1668 15.8548 61.1471C18.115 60.9847 20.3776 60.8229 22.6378 60.6608C23.6752 60.5865 24.714 60.511 25.7514 60.4366C23.8668 60.1384 21.7268 59.901 19.3694 59.8114C16.7364 59.7123 14.3812 59.8126 12.3907 59.9914C12.1242 60.0153 11.8877 59.8188 11.8633 59.5524C11.8394 59.2859 12.0358 59.0494 12.3022 59.0251C14.3281 58.8431 16.7252 58.7412 19.4042 58.8419Z" fill="#817CFF"/>
  <path d="M75.3694 63.4269C75.6365 63.4341 75.8492 63.6556 75.8431 63.9227C75.8362 64.1903 75.6117 64.403 75.3441 64.3964L70.2853 64.2637C70.0176 64.2568 69.8048 64.0356 69.8116 63.7679C69.8189 63.5005 70.043 63.2873 70.3105 63.2942L75.3694 63.4269ZM78.1767 57.2815C78.4281 57.1906 78.7072 57.3209 78.7988 57.572C78.8893 57.8232 78.7591 58.0994 78.5083 58.191L67.8569 62.0595L80.2356 60.3131C80.5004 60.2761 80.7472 60.4622 80.7851 60.7268C80.8216 60.9913 80.6358 61.2354 80.3714 61.2732L63.3917 63.6764C63.1467 63.7101 62.9152 63.5532 62.8549 63.3132C62.7951 63.0724 62.9279 62.8232 63.1612 62.7384L69.48 60.4395L62.6749 61.1437C62.4089 61.1711 62.1694 60.9768 62.1412 60.711C62.1142 60.4451 62.308 60.2052 62.5738 60.1774L71.6937 59.2363C71.885 59.2168 72.0571 59.3163 72.1515 59.47L78.1767 57.2815Z" fill="#817CFF"/>
  <path d="M51.0493 65.241C51.2384 65.2023 51.4342 65.2789 51.5451 65.4367C51.6559 65.595 51.6619 65.8057 51.5609 65.9704C51.2718 66.4416 50.6993 67.2346 49.7072 67.8777C48.4984 68.6611 47.2947 68.8054 46.6189 68.8282C46.5778 68.8978 46.5399 68.9704 46.4989 69.0398C46.4134 69.1844 46.3279 69.3283 46.2431 69.4724C46.1672 69.6014 46.0347 69.69 45.8863 69.7092C45.7377 69.7284 45.5883 69.6758 45.4821 69.5703C44.3022 68.3988 43.1221 67.229 41.9421 66.0588L41.9453 66.0557C41.8563 65.9671 41.7969 65.8476 41.7969 65.7146C41.7969 65.5188 41.9161 65.3415 42.0969 65.2662C42.19 65.2275 42.2898 65.2238 42.3842 65.2441C43.5105 65.4735 44.8956 65.6591 46.4831 65.6767C48.2756 65.6957 49.8249 65.4909 51.0493 65.241ZM49.9756 66.4062C48.9488 66.5555 47.7706 66.66 46.4705 66.6462C45.4645 66.6349 44.538 66.55 43.701 66.4378C44.3742 67.1054 45.0457 67.7748 45.7189 68.443C45.785 68.3311 45.8553 68.2199 45.921 68.1082L45.9999 68.0072C46.0908 67.9191 46.2142 67.8697 46.3441 67.8714C46.8279 67.8778 48.0015 67.827 49.1767 67.0662C49.494 66.8606 49.7541 66.627 49.9756 66.4062Z" fill="#817CFF"/>
</svg>
